<mxfile host="app.diagrams.net" modified="2023-04-19T08:24:26.448Z" agent="Mozilla/5.0 (X11; Linux x86_64) AppleWebKit/537.36 (KHTML, like Gecko) Chrome/99.0.4844.82 Safari/537.36" version="21.1.9" etag="9rAoOdSKr2EqUS_Jj8bD" type="github">
  <diagram name="第 1 页" id="rLq0fgtmp0JjZHj2TNon">
    <mxGraphModel>
      <root>
        <mxCell id="0" />
        <mxCell id="1" parent="0" />
      </root>
    </mxGraphModel>
  </diagram>
</mxfile>
